<?xml version="1.0" encoding="utf-8"?>
<!-- Generator: Adobe Illustrator 24.2.0, SVG Export Plug-In . SVG Version: 6.00 Build 0)  -->
<svg version="1.1" id="Layer_1" xmlns="http://www.w3.org/2000/svg" xmlns:xlink="http://www.w3.org/1999/xlink" x="0px" y="0px"
	 viewBox="0 0 1656.7 170.1" style="enable-background:new 0 0 1656.7 170.1;" xml:space="preserve">
<style type="text/css">
	.st0{fill:none;stroke:#231F20;stroke-width:0.5;}
</style>
<g id="Layer_1-2">
	<g>
		<path class="st0" d="M14.1,25v46.2h29v9h9.4v17.4H40.2v-9h-26v54H59v18.1H2V7.3h57V25H14.1z"/>
		<path class="st0" d="M125.6,143.6V161H72.9v-0.3h-4.3V7.3h12.1v136.3H125.6z"/>
		<path class="st0" d="M240.7,24.5h-29.3v136h-12.1v-136H170V7.2h70.7L240.7,24.5L240.7,24.5z"/>
		<path class="st0" d="M258.8,7.2v153.4h-12.1V7.2L258.8,7.2z"/>
		<path class="st0" d="M280.5,25v46.2h29v9h9.4v17.4h-12.3v-9h-26v54h44.8v18.1h-57V7.3h57V25H280.5z"/>
		<path class="st0" d="M335,7.2h4.9V6.8L362.3,7v78h4.3v18.7h5.4v19.1h4.8v19.4h5.3V123h4.8v-19.1h5.4V85.2h4.3V7L419,6.8v0.3h4.9
			v153.4h-12.1V30.3h-4.9v60.8h-4.3v18.7h-5.3v18.7h-4.7v18.7h-6v13.1h-15.5v-13h-4.7v-18.7h-4.7v-18.7h-5.3V91.3H352v-61h-4.9
			v130.2H335V7.2z"/>
		<path class="st0" d="M496,78h-7.7v11.6h-11v13.6h-31.6v57.3h-12.1V7.2h26.9C483.2,7.2,496,22.3,496,55V78z M483.9,72.2V54.9
			c0-21.3-8.2-30.3-25.2-30.3h-13v61.3h29.2V72.2H483.9z"/>
		<path class="st0" d="M505.6,135.6V32.5h12.1V21.1h6.7V6.5h46.4v19.4h-41.5v19.8h-11.6v90H505.6z M588.6,34.6v103.1h-12.2v11.4
			h-6.7v14.7h-46.4v-19.3h41.5v-19.9h11.6v-90H588.6z"/>
		<path class="st0" d="M709.9,126.1c-6.2,24.9-18,37.7-33.3,37.7c-23.9,0-40-32.7-40-81.6V39.5h12V82c0,38.7,11.2,64.4,27.7,64.4
			c10.1,0,18.2-8,22.1-25.9L709.9,126.1z M695.4,22.8h-44V5.4h46.4v13.6h11v26.6h-13.4V22.8z"/>
		<path class="st0" d="M719.5,135.6V32.5h12.1V21.1h6.7V6.5h46.4v19.4h-41.5v19.8h-11.6v90H719.5z M802.4,34.6v103.1h-12.1v11.4
			h-6.7v14.7h-46.4v-19.3h41.4v-19.9h11.6v-90H802.4z"/>
		<path class="st0" d="M812,7.2h4.9V6.8L839.3,7v78h4.3v18.7h5.4v19.1h4.8v19.4h5.3V123h4.8v-19.1h5.4V85.2h4.3V7L896,6.8v0.3h4.9
			v153.4h-12.1V30.3h-4.9v60.8h-4.3v18.7h-5.3v18.7h-4.7v18.7h-6v13.1h-15.5v-13h-4.7v-18.7h-4.7v-18.7h-5.3V91.3H829v-61h-4.9
			v130.2H812L812,7.2L812,7.2z"/>
		<path class="st0" d="M973,78h-7.7v11.6h-11v13.6h-31.6v57.3h-12.1V7.2h26.9C960.2,7.2,973,22.3,973,55V78z M960.9,72.2V54.9
			c0-21.3-8.2-30.3-25.2-30.3h-13v61.3h29.2V72.2H960.9z"/>
		<path class="st0" d="M1054.6,7v91.5c0,41.2-13,64.8-36.1,64.8h-12.9v-9.5h-6.2v-9.9h-9.1v-13.5h-7.7V7.7h12.1v116.7h7.9v9.9h9.1
			v11.6h6.7c15.2,0,24-19.3,24-52.8V7H1054.6z"/>
		<path class="st0" d="M1131.3,24.5H1102v136h-12.1v-136h-29.3V7.2h70.7V24.5z"/>
		<path class="st0" d="M1196,103.8h-36.5v14.3h-3.5v14h-4v14.1h-2.6v14.3h-12.1V143h2.5v-14.3h4v-14.1h3.5v-14h3.3V86.2h3.7V71.6
			h3.8v-14h3.2V43.1h4V29h4.6V7.5h17.6l32.9,153.2h-12.5L1196,103.8z M1192.4,86.4l-11.6-55.2h-3.2v15.3h-4v14.1h-3.2v14.5h-3.7
			v11.2L1192.4,86.4z"/>
		<path class="st0" d="M1303.4,126.1c-6.2,24.9-18,37.7-33.4,37.7c-23.9,0-40-32.7-40-81.6V39.5h12.1V82c0,38.7,11.2,64.4,27.7,64.4
			c10.1,0,18.2-8,22.1-25.9L1303.4,126.1z M1288.9,22.8h-44V5.4h46.4v13.6h11v26.6h-13.4V22.8z"/>
		<path class="st0" d="M1325.1,7.2v153.4H1313V7.2L1325.1,7.2z"/>
		<path class="st0" d="M1334.7,135.6V32.5h12.1V21.1h6.8V6.5h46.4v19.4h-41.5v19.8h-11.6v90H1334.7z M1417.6,34.6v103.1h-12.1v11.4
			h-6.7v14.7h-46.4v-19.3h41.5v-19.9h11.6v-90H1417.6z"/>
		<path class="st0" d="M1494.7,7.2v153.4h-12.1v-48.1h-7.4V101h-5.8V88.9h-5V77.7h-5.9V65.3h-6.1V53.8h-5.8V41.7h-5V30.5h-2.2v130
			h-12.1V7.2h19.7v11.2h5.9v12.3h5v11.2h5.7v12.4h6.1v11.2h5.9V78h5v11.2h2V7.2H1494.7z"/>
		<path class="st0" d="M1562.9,103.8h-36.5v14.3h-3.5v14h-4v14.1h-2.6v14.3h-12.1V143h2.5v-14.3h4v-14.1h3.5v-14h3.4V86.2h3.7V71.6
			h3.8v-14h3.2V43.1h4V29h4.6V7.5h17.6l32.9,153.2h-12.5L1562.9,103.8z M1559.4,86.4l-11.6-55.2h-3.2v15.3h-4v14.1h-3.2v14.5h-3.6
			v11.2L1559.4,86.4z"/>
		<path class="st0" d="M1654,143.6V161h-52.7v-0.3h-4.3V7.3h12.1v136.3H1654z"/>
	</g>
</g>
</svg>
